<svg version="1.2" xmlns="http://www.w3.org/2000/svg" viewBox="0 0 48 48" width="48" height="48">
	<title>icons8-adobe-xd-svg</title>
	<style>
		.s0 { fill: #ff41c8 } 
		.s1 { fill: #16020b } 
	</style>
	<rect id="Layer" class="s0" width="48" height="48" rx="5"></rect>
	<path id="Layer" fill-rule="evenodd" class="s1" d="m4 4h40v40h-40zm10.9 10.4h-4.4l4.5 9.4-4.6 9.6h4.5l2.6-6.7 2.6 6.7h4.4l-4.6-9.6 4.5-9.4h-4.4l-2.5 6.5zm10.5 12.6q0 3.3 1.2 5 1.1 1.6 3.3 1.6 1.8 0 3-1.6l0.1 1.4h3.4v-20h-3.7v7q-1.1-1.4-2.7-1.4-2.3 0-3.5 1.7-1.1 1.7-1.1 5.2c0 0 0 1.1 0 1.1zm3.7-1.1q0-2.1 0.4-3 0.5-0.8 1.5-0.8 1.1 0 1.7 1.1v6.4q-0.6 1-1.7 1-1 0-1.5-0.9-0.4-0.8-0.4-2.9z"/>
</svg>