<svg version="1.2" xmlns="http://www.w3.org/2000/svg" viewBox="0 0 48 48" width="48" height="48">
	<title>icons8-bootstrap-svg</title>
	<style>
		.s0 { fill: #673ab7 } 
		.s1 { fill: #ffffff } 
	</style>
	<rect id="Layer" class="s0" width="48" height="48" rx="7"></rect>
	<path id="Layer" fill-rule="evenodd" class="s1" d="m37.3 30.5q0 4.7-2.8 7.1-2.9 2.3-8.6 2.4h-13.9v-32h12.5c4 0 6.3 1 8.4 2.5q3.1 2.3 3.1 6.6 0 2.5-1.1 4.2c-1.2 1.9-2.6 2.4-2.6 2.4q2.4 0.6 3.7 2.4 1.3 1.8 1.3 4.4zm-17.3-9.8c0 0 5.6 0 5.7 0 2 0 3.6-1.7 3.6-3.7 0-2-1.6-3.7-3.6-3.7-0.1 0-5.7 0-5.7 0zm10.7 10c0-2.2-1.8-4-4-4h-6.7v8h6.7c2.2 0 4-1.8 4-4z"/>
</svg>