<svg version="1.2" xmlns="http://www.w3.org/2000/svg" viewBox="0 0 48 48" width="48" height="48">
	<title>icons8-adobe-illustrator-svg</title>
	<style>
		.s0 { fill: #ff5722 } 
		.s1 { fill: #1c0802 } 
	</style>
	<g id="Dossier 1">
		<rect id="Layer" class="s0" width="48" height="48" rx="5"></rect>
		<path id="Layer" fill-rule="evenodd" class="s1" d="m4 4h40v40h-40zm23.7 29.3l-6-18.9h-3.5l-5.9 18.9h4l1.1-3.8h5.2l1 3.8zm1.7 0h3.7v-14.1h-3.7zm3.9-17.7q0-0.8-0.6-1.4-0.5-0.5-1.4-0.5-0.9 0-1.5 0.5-0.5 0.6-0.5 1.4 0 0.9 0.5 1.4 0.6 0.6 1.5 0.6 0.9 0 1.4-0.6 0.6-0.5 0.6-1.4z"/>
		<path id="Layer" class="s1" d="m20 19.5l1.7 6.8h-3.5z"/>
	</g>
</svg>