<svg version="1.2" xmlns="http://www.w3.org/2000/svg" viewBox="0 0 48 48" width="48" height="48">
	<title>icons8-adobe-indesign-svg</title>
	<style>
		.s0 { fill: #e91e63 } 
		.s1 { fill: #16020b } 
	</style>
	<rect id="Layer" class="s0" width="48" height="48" rx="5"></rect>
	<path id="Layer" class="s1" d="m30 23.1v6.4q-0.5 1-1.6 1-1.1 0-1.5-0.8-0.5-0.8-0.5-2.9v-1q0-2.1 0.5-2.9 0.5-0.8 1.5-0.8 1.1 0 1.6 1z"/>
	<path id="Layer" fill-rule="evenodd" class="s1" d="m4 4h40v40h-40zm12.4 29.3h3.8v-18.9h-3.8zm17.3-20h-3.7v7q-1.1-1.4-2.7-1.4-2.2 0-3.4 1.7-1.2 1.7-1.2 5.2v1.1q0.1 3.2 1.2 4.9 1.2 1.7 3.4 1.7 1.8 0 2.9-1.7l0.2 1.5h3.3c0 0 0-20 0-20z"/>
</svg>