<svg version="1.2" xmlns="http://www.w3.org/2000/svg" viewBox="0 0 48 48" width="48" height="48">
	<title>icons8-javascript-svg</title>
	<style>
		.s0 { fill: #ffd600 } 
		.s1 { fill: #000001 } 
	</style>
	<path id="Layer" class="s0" d="m0 0h48v48h-48z"/>
	<path id="Layer" class="s1" d="m31.4 35.9c0.9 1.5 1.9 3 4 3 1.8 0 2.8-0.9 2.8-2.1 0-1.5-1-2-3-2.9l-1.1-0.5c-3.1-1.3-5.1-2.9-5.1-6.4 0-3.2 2.4-5.7 6.3-5.7 2.7 0 4.7 1 6.1 3.5l-3.3 2.1c-0.8-1.3-1.6-1.8-2.8-1.8-1.3 0-2.1 0.8-2.1 1.8 0 1.3 0.8 1.8 2.7 2.6l1 0.5c3.7 1.5 5.8 3.1 5.8 6.7 0 3.9-3.1 6-7.2 6-4 0-6.2-2-7.5-4.5zm-15.4 0.1c0.6 1.2 1.7 2.1 3.1 2.1 1.4 0 2.2-0.5 2.2-2.7v-14.1h4.5v14.8c0 4.5-2.6 6.5-6.4 6.5-3.4 0-5.9-2.3-6.9-4.5z"/>
</svg>