<svg version="1.2" xmlns="http://www.w3.org/2000/svg" viewBox="0 0 48 48" width="48" height="48">
	<title>icons8-adobe-photoshop-svg</title>
	<style>
		.s0 { fill: #03a9f4 } 
		.s1 { fill: #020f16 } 
	</style>
	<rect id="Layer" class="s0" width="48" height="48" rx="5"></rect>
	<path id="Layer" class="s1" d="m20.3 18.4q0.6 0.9 0.6 2.3 0 1.3-0.6 2.1-0.6 0.7-1.7 0.7h-2.6v-5.9h2.7q1 0 1.6 0.8z"/>
	<path id="Layer" fill-rule="evenodd" class="s1" d="m4 4h40v40h-40zm20.8 16.7q0-2.8-1.7-4.6-1.6-1.7-4.5-1.7h-6.4v18.9h3.8v-6.6h2.6q2.9 0 4.6-1.6 1.6-1.7 1.6-4.4zm12.2 8.7q0-1.6-0.9-2.6-1-1.1-3.2-1.9-1.6-0.7-2-1-0.4-0.4-0.4-0.8 0-0.7 0.4-1.1 0.4-0.3 0.9-0.3 1.5 0 1.5 1.7h3.7q0-2-1.4-3.2-1.4-1.2-3.7-1.2-2.2 0-3.6 1.2-1.3 1.2-1.3 3 0 1.5 0.8 2.5 0.9 1 3.2 1.9 1.5 0.7 2 1.1 0.4 0.4 0.4 0.9 0 1.3-1.5 1.3-0.9 0-1.4-0.5-0.4-0.5-0.4-1.4h-3.5q0 1.2 0.7 2.3 0.6 1.1 1.8 1.7 1.2 0.6 2.8 0.6 2.3 0 3.7-1.2 1.4-1.1 1.4-3z"/>
</svg>