<svg version="1.2" xmlns="http://www.w3.org/2000/svg" viewBox="0 0 48 48" width="48" height="48">
	<title>new-php-logo-svg</title>
	<defs>
		<clipPath clipPathUnits="userSpaceOnUse" id="cp1">
			<path d="m23.97 35.97c-13.25 0-23.97-5.58-23.97-12.48 0-6.91 10.72-12.49 23.97-12.49 13.26 0 23.97 5.58 23.97 12.49 0 6.9-10.71 12.48-23.97 12.48z"/>
		</clipPath>
		<radialGradient id="g1" cx="14.4" cy="15.4" r="31.5" gradientUnits="userSpaceOnUse">
			<stop offset="0" stop-color="#aeb2d5"/>
			<stop offset=".3" stop-color="#aeb2d5"/>
			<stop offset=".8" stop-color="#484c89"/>
			<stop offset="1" stop-color="#484c89"/>
		</radialGradient>
		<clipPath clipPathUnits="userSpaceOnUse" id="cp2">
			<path d="m-1 9.58h49.94v27.81h-49.94z"/>
		</clipPath>
		<clipPath clipPathUnits="userSpaceOnUse" id="cp3">
			<path d="m-1 9.58h49.94v27.81h-49.94z"/>
		</clipPath>
	</defs>
	<style>
		.s0 { fill: url(#g1) } 
		.s1 { fill: #777bb3 } 
		.s2 { fill: #000000 } 
		.s3 { fill: #ffffff } 
	</style>
	<g id="g3438">
		<g id="g3440">
			<g id="Clip-Path: g3442" clip-path="url(#cp1)">
				<g id="g3442">
					<g id="g3448">
						<g id="g3450">
							<ellipse id="path3462" class="s0" cx="24" cy="23.5" rx="24" ry="12.5"/>
						</g>
					</g>
				</g>
			</g>
		</g>
		<g id="g3464">
			<g id="Clip-Path: g3466" clip-path="url(#cp2)">
				<g id="g3466">
					<g id="g3472">
						<ellipse id="path3474" class="s1" cx="24" cy="23.5" rx="23" ry="11.6"/>
					</g>
				</g>
			</g>
		</g>
		<g id="g3476">
			<g id="Clip-Path: g3478" clip-path="url(#cp3)">
				<g id="g3478">
					<g id="g3484">
						<path id="path3486" fill-rule="evenodd" class="s2" d="m7.6 30.7q-0.2 0-0.2-0.1-0.1-0.1-0.1-0.2l2.5-12.5c0-0.1 0.1-0.2 0.2-0.2h5.3q2.5 0 3.7 1.3 1.2 1.4 0.7 3.7-0.2 1-0.6 1.8-0.5 0.8-1.2 1.4-0.9 0.8-1.9 1.2-1.1 0.3-2.7 0.3h-2.1l-0.6 3.1c-0.1 0.1-0.2 0.2-0.3 0.2zm5.5-5.8q1.6 0 2.3-0.5 0.7-0.6 1-2 0.2-1.2-0.2-1.7-0.4-0.5-1.9-0.5h-1.7l-0.9 4.7z"/>
					</g>
					<g id="g3488">
						<path id="path3490" fill-rule="evenodd" class="s3" d="m19.2 18.9q1.2 1.4 0.8 3.9-0.2 1-0.7 1.8-0.5 0.8-1.2 1.5-0.9 0.9-2.1 1.2-1 0.4-2.7 0.4h-1.9l-0.6 2.9c0 0.2-0.2 0.4-0.5 0.4h-2.7q-0.3 0-0.4-0.2-0.2-0.2-0.2-0.4l2.5-12.5c0-0.3 0.3-0.4 0.5-0.4h5.3q2.6 0 3.9 1.4zm-9.2-0.9l-2.4 12.5h2.7l0.7-3.3h2.3q1.6 0 2.6-0.4 1-0.3 1.8-1.1 0.7-0.6 1.1-1.4 0.5-0.7 0.6-1.6 0.5-2.3-0.6-3.5-1.1-1.2-3.5-1.2zm2.4 1.9h1.9q1.5 0 2 0.6 0.6 0.6 0.3 2-0.3 1.4-1.1 2.1-0.8 0.6-2.5 0.6h-1.7zm-0.4 4.7h1.1q1.5 0 2.2-0.5 0.6-0.5 0.9-1.8 0.2-1.1-0.2-1.5c-0.1-0.2-0.5-0.4-1.7-0.4h-1.4z"/>
					</g>
					<g id="g3492">
						<path id="path3494" class="s2" d="m26 27.4q-0.1 0-0.2-0.1-0.1-0.1 0-0.2l1-5.5c0.2-0.6 0.1-0.9 0-1.1-0.1-0.1-0.4-0.3-1.2-0.3h-2l-1.3 7c-0.1 0.1-0.2 0.2-0.3 0.2h-2.7q-0.1 0-0.2-0.1-0.1-0.1-0.1-0.2l2.5-12.5c0-0.1 0.1-0.2 0.2-0.2h2.8q0.1 0 0.2 0.1 0 0.1 0 0.2l-0.6 3h2.1c1.7 0 2.8 0.3 3.4 0.9q1 0.9 0.6 2.8l-1.2 5.8c0 0.1-0.1 0.2-0.2 0.2z"/>
					</g>
					<g id="g3496">
						<path id="path3498" fill-rule="evenodd" class="s3" d="m24.9 14.3q0.1 0.2 0.1 0.4l-0.6 2.8h1.8c1.7 0 2.9 0.3 3.6 0.9q1 1 0.6 3l-1.1 5.8c0 0.3-0.3 0.5-0.5 0.5h-2.8q-0.2 0-0.4-0.2-0.1-0.2-0.1-0.4l1.1-5.6c0.1-0.5 0-0.8 0-0.8 0 0-0.2-0.2-1-0.2h-1.8l-1.3 6.7c0 0.3-0.2 0.5-0.5 0.5h-2.7q-0.3 0-0.4-0.2-0.2-0.2-0.1-0.4l2.4-12.6c0.1-0.2 0.3-0.4 0.5-0.4h2.8q0.2 0 0.4 0.2zm-3.2 0.3l-2.4 12.6h2.7l1.4-7.2h2.2q1 0 1.4 0.3 0.3 0.4 0.1 1.3l-1.1 5.6h2.8l1.1-5.9q0.4-1.7-0.5-2.5-0.9-0.8-3.2-0.8h-2.4l0.7-3.4z"/>
					</g>
					<g id="g3500">
						<path id="path3502" fill-rule="evenodd" class="s2" d="m29 30.7q-0.1 0-0.2-0.1 0-0.1 0-0.2l2.4-12.5c0.1-0.1 0.2-0.2 0.3-0.2h5.3q2.5 0 3.7 1.3 1.1 1.4 0.7 3.7-0.2 1-0.6 1.8-0.5 0.8-1.2 1.4-0.9 0.8-1.9 1.2-1.1 0.3-2.7 0.3h-2.1l-0.6 3.1c-0.1 0.1-0.2 0.2-0.3 0.2zm5.5-5.8q1.5 0 2.3-0.5 0.7-0.6 1-2 0.2-1.2-0.2-1.7-0.4-0.5-1.9-0.5h-1.7l-0.9 4.7z"/>
					</g>
					<g id="g3504">
						<path id="path3506" fill-rule="evenodd" class="s3" d="m40.7 18.9q1.2 1.4 0.7 3.9-0.1 1-0.6 1.8-0.5 0.8-1.2 1.5-0.9 0.9-2.1 1.2-1 0.4-2.7 0.4h-1.9l-0.6 2.9c0 0.2-0.3 0.4-0.5 0.4h-2.8q-0.2 0-0.4-0.2-0.1-0.2-0.1-0.4l2.5-12.5c0-0.3 0.3-0.4 0.5-0.4h5.3q2.6 0 3.9 1.4zm-9.2-0.9l-2.5 12.5h2.8l0.6-3.3h2.4q1.6 0 2.6-0.4 1-0.3 1.8-1.1 0.7-0.6 1.1-1.4 0.5-0.7 0.6-1.6 0.5-2.3-0.6-3.5-1.1-1.2-3.5-1.2zm2.4 1.9h1.8q1.6 0 2.1 0.6 0.6 0.6 0.3 2-0.3 1.4-1.1 2.1-0.8 0.6-2.5 0.6h-1.7zm-0.4 4.7h1.1q1.5 0 2.1-0.5 0.7-0.5 0.9-1.8 0.3-1.1-0.1-1.5c-0.1-0.2-0.5-0.4-1.7-0.4h-1.4z"/>
					</g>
				</g>
			</g>
		</g>
	</g>
</svg>