<svg version="1.2" xmlns="http://www.w3.org/2000/svg" viewBox="0 0 48 48" width="48" height="48">
	<title>icons8-symfony-svg</title>
	<style>
		.s0 { fill: #455a64 } 
	</style>
	<path id="Layer" fill-rule="evenodd" class="s0" d="m24.1 48.1c-13.3 0-24-10.7-24-24 0-13.3 10.7-24 24-24 13.3 0 24 10.7 24 24 0 13.3-10.7 24-24 24zm15.5-36.8c-0.1-1.8-1.9-3-4.5-2.9-2.5 0.1-4.8 1.5-6.4 3.4-1.9 2.1-2.8 3.9-3.7 6.5-1.6-1.3-2.8-2.9-5.3-3.6-2-0.6-3.8-0.4-5.7 1-0.9 0.7-1.5 1.6-1.8 2.6-0.2 0.5-0.2 1-0.2 1.5 0 2.1 3 6.1 3 6.1 0.3 0.3 0.9 1.1 0.5 2.3-0.4 1.3-2 2.2-3.6 1.7-0.8-0.3-1.8-0.8-1.6-1.5 0.1-0.4 0.3-0.6 0.5-0.9 0.1-0.2 0.1-0.2 0.1-0.3 0.4-1.1 0-2.4-1.1-2.8-1-0.3-2.1 0.2-2.5 1.4-0.5 1.4 0.3 4 4 5.1 4.3 1.3 7.9-1 8.4-4q0.1-0.4 0.1-0.8c0-2.3-3.7-6.1-3.7-8 0-0.5 0.1-1 0.5-1.4 0.6-0.9 1.4-1 2.9-0.6 2.4 0.6 3.3 2.1 5.1 3.4-0.7 2.3-1.4 5.1-1.8 7.2l-0.3 1.6c-1.2 6.3-2.1 9.6-4.5 11.6-0.9 0.6-1.9 0.8-3 0.9-0.5 0-0.7-0.4-0.7-0.5 0-0.4 0.3-0.6 0.5-0.8 0.3-0.1 0.8-0.4 0.8-1.4 0-1.1-0.9-2.1-2.4-2.1-1 0-2.4 1.1-2.4 2.8 0.1 1.7 2.4 3.3 4.9 3.2 1.3-0.1 4.3-0.6 7.3-4 3.4-4 4.4-8.5 5.1-11.9l0.8-4.5q0.7 0.1 1.5 0.1c4.2 0.1 6.8-2.2 6.8-3.8 0-1.3-1-2.3-1.9-2.3-0.6 0.1-1.7 0.6-1.7 1.7 0 0.9 1.3 1.6 0.1 2.4-0.8 0.5-2.4 0.9-4.6 0.6l0.4-1.7c0.8-4.1 1.6-8.9 5.4-9 0.3 0 1.3 0 1.3 0.6 0 0.3-0.5 0.8-0.5 1.7 0 1 0.8 1.7 2 1.7 1.6-0.1 1.9-1.5 1.9-2.3z"/>
</svg>