<svg version="1.2" xmlns="http://www.w3.org/2000/svg" viewBox="0 0 48 48" width="48" height="48">
	<title>icons8-wordpress-svg</title>
	<style>
		.s0 { fill: #ffffff } 
		.s1 { fill: #01579b } 
	</style>
	<path id="Layer" class="s0" d="m40.9 7.1c4.5 4.5 7 10.6 7 16.9 0 6.3-2.5 12.4-7 16.9-4.5 4.5-10.6 7-16.9 7-6.3 0-12.4-2.5-16.9-7-4.5-4.5-7-10.6-7-16.9 0-6.3 2.5-12.4 7-16.9 4.5-4.5 10.6-7 16.9-7 6.3 0 12.4 2.5 16.9 7z"/>
	<path id="Layer" class="s1" d="m6.5 16.2l9.1 25.1c-6.4-3.1-10.8-9.7-10.8-17.3 0-2.8 0.6-5.4 1.7-7.8zm29 13l-1.9 6.4-7.1-21.1c1.2-0.1 2.2-0.2 2.2-0.2 1-0.1 0.9-1.6-0.1-1.6 0 0-3.1 0.3-5.1 0.3-1.9 0-5.1-0.3-5.1-0.3-1 0-1.1 1.6-0.1 1.6 0 0 1 0.1 2 0.2l3.1 8.7-4.2 12.6-7.1-21.3c1.2-0.1 2.2-0.2 2.2-0.2 1-0.1 0.9-1.7-0.1-1.6 0 0-3.1 0.2-5.1 0.2-0.4 0-0.5 0.1-0.8 0 3.5-4.9 9.2-8.1 15.7-8.1 5 0 9.6 1.9 13 5q-0.2 0-0.3 0c-1.9 0-3.6 1.7-3.6 3.4 0 1.6 0.9 2.9 1.9 4.5 0.7 1.3 2 3 2 5.3q0 2.5-1.5 6.2zm-5.3 12.6q0.1 0.2 0.2 0.3c-2 0.7-4.2 1.1-6.4 1.1q-2.8 0-5.4-0.8l5.7-16.7zm13-17.9c0 7.1-3.8 13.3-9.5 16.6l5.8-16.9c1.1-2.8 1.5-5 1.5-6.9q0-1.1-0.2-2c1.5 2.8 2.4 5.9 2.4 9.2z"/>
	<path id="Layer" fill-rule="evenodd" class="s1" d="m24 48c-13.3 0-24-10.7-24-24 0-13.3 10.7-24 24-24 13.3 0 24 10.7 24 24 0 13.3-10.7 24-24 24zm21.6-24c0-11.9-9.7-21.6-21.6-21.6-11.9 0-21.6 9.7-21.6 21.6 0 11.9 9.7 21.6 21.6 21.6 11.9 0 21.6-9.7 21.6-21.6z"/>
</svg>